<svg width="22" height="21" viewBox="0 0 22 21" fill="none" xmlns="http://www.w3.org/2000/svg">
<path fill-rule="evenodd" clip-rule="evenodd" d="M4.58471 12.0496L9.8843 6.75003C10.5661 6.06821 11 5.13846 11 4.08474C11 3.06201 10.5971 2.13226 9.91529 1.45044L4.6157 6.75003C3.93388 7.43184 3.5 8.3616 3.5 9.41532C3.5 10.438 3.90289 11.3678 4.58471 12.0496ZM4.6157 14.25C3.93388 14.9318 3.5 15.8926 3.5 16.9153C3.5 17.938 3.90289 18.8678 4.58471 19.5496L17.3843 6.75003C18.0661 6.06821 18.5 5.13846 18.5 4.08474C18.5 3.06201 18.0971 2.13226 17.4153 1.45044L4.6157 14.25ZM12.1157 14.25L17.4153 8.95044C18.0971 9.63226 18.5 10.562 18.5 11.5847C18.5 12.6385 18.0661 13.5682 17.3843 14.25L12.0847 19.5496C11.4029 18.8678 11 17.938 11 16.9153C11 15.8616 11.4339 14.9318 12.1157 14.25Z" fill="white"/>
<mask id="mask0" mask-type="alpha" maskUnits="userSpaceOnUse" x="3" y="1" width="16" height="19">
<path fill-rule="evenodd" clip-rule="evenodd" d="M4.58471 12.0496L9.8843 6.75003C10.5661 6.06821 11 5.13846 11 4.08474C11 3.06201 10.5971 2.13226 9.91529 1.45044L4.6157 6.75003C3.93388 7.43184 3.5 8.3616 3.5 9.41532C3.5 10.438 3.90289 11.3678 4.58471 12.0496ZM4.6157 14.25C3.93388 14.9318 3.5 15.8926 3.5 16.9153C3.5 17.938 3.90289 18.8678 4.58471 19.5496L17.3843 6.75003C18.0661 6.06821 18.5 5.13846 18.5 4.08474C18.5 3.06201 18.0971 2.13226 17.4153 1.45044L4.6157 14.25ZM12.1157 14.25L17.4153 8.95044C18.0971 9.63226 18.5 10.562 18.5 11.5847C18.5 12.6385 18.0661 13.5682 17.3843 14.25L12.0847 19.5496C11.4029 18.8678 11 17.938 11 16.9153C11 15.8616 11.4339 14.9318 12.1157 14.25Z" fill="white"/>
</mask>
<g mask="url(#mask0)">
<rect width="22" height="21" fill="#242748"/>
</g>
</svg>
